<svg xmlns="http://www.w3.org/2000/svg" xmlns:xlink="http://www.w3.org/1999/xlink" viewBox="0,0,256,256" width="256px"
  height="256px">
  <g fill="#ffffff" fill-rule="nonzero" stroke="none" stroke-width="1" stroke-linecap="butt" stroke-linejoin="miter"
    stroke-miterlimit="10" stroke-dasharray="" stroke-dashoffset="0" font-family="none" font-weight="none"
    font-size="none" text-anchor="none" style="mix-blend-mode: normal">
    <g transform="scale(16,16)">
      <path
        d="M3.5,2c-0.82,0 -1.5,0.68 -1.5,1.5v9c0,0.82 0.68,1.5 1.5,1.5h9c0.82,0 1.5,-0.68 1.5,-1.5v-9c0,-0.82 -0.68,-1.5 -1.5,-1.5zM3.5,3h9c0.28,0 0.5,0.22 0.5,0.5v9c0,0.28 -0.22,0.5 -0.5,0.5h-9c-0.28,0 -0.5,-0.22 -0.5,-0.5v-9c0,-0.28 0.22,-0.5 0.5,-0.5zM10.36328,4.23633c-0.17391,-0.01922 -0.35789,0.06062 -0.46289,0.20313c-0.04,0.05 -0.08109,0.11016 -0.12109,0.16016c-0.04,0.06 -0.10992,0.07078 -0.16992,0.05078c-2.14,-0.96 -3.35977,1.06977 -3.75977,2.00977c-0.83,1.95 -0.82945,5.00977 1.56055,5.00977c2.01,0 2.95977,-1.31992 3.50977,-2.16992c0.13,-0.2 0.08086,-0.45961 -0.11914,-0.59961v0.00977c-0.2,-0.14 -0.47133,-0.09062 -0.61133,0.10938c-0.59,0.82 -1.44992,1.55078 -2.66992,1.55078c-1.22,0 -1.28859,-2.19109 -0.55859,-3.62109c0.45,-0.87 1.07891,-1.58984 1.62891,-1.58984c0.39,0 0.61,0.3507 0.5,0.7207c-0.13,0.45 -0.14062,0.7593 -0.14062,0.7793c-0.01,0.27 0.2007,0.49 0.4707,0.5h0.01953c0.26,0 0.47047,-0.20875 0.48047,-0.46875c0,0 0.04953,-0.92086 0.76953,-1.88086c0.18,-0.23 0.10984,-0.5807 -0.16016,-0.7207c-0.0525,-0.03 -0.10805,-0.04633 -0.16602,-0.05273z">
      </path>
    </g>
  </g>
</svg>